<svg width="300" height="300" viewBox="0 0 300 300" fill="none" xmlns="http://www.w3.org/2000/svg">
<mask id="mask0_14_30" style="mask-type:alpha" maskUnits="userSpaceOnUse" x="10" y="1" width="281" height="299">
<path d="M150.492 299C272.348 299 286.258 283.897 287.809 257.004C288.223 249.836 282.176 244 274.996 244H150.492L26.0041 244C18.8244 244 12.7097 249.842 13.2703 257C15.1903 281.514 30.5063 299 150.492 299Z" fill="#70AD50" stroke="#70AD50"/>
<path d="M16 185C16 170.641 27.6406 159 42 159H259C273.359 159 285 170.641 285 185V195C285 214.33 269.33 230 250 230H51C31.67 230 16 214.33 16 195V185Z" fill="#70AD50"/>
<path d="M150.5 1.48441C210.815 1.48443 245.837 18.7169 265.776 39.792C285.706 60.8574 290.5 85.6905 290.5 100.772C290.5 115.8 287.825 126.907 280.533 134.239C273.242 141.571 261.448 145.015 243.503 145.015H57.501C40.4777 145.015 28.6918 141.567 21.1719 134.245C13.6483 126.919 10.5 115.818 10.5 100.772C10.5002 87.8943 15.2975 63.068 35.2188 41.4561C55.154 19.8292 90.1751 1.48441 150.5 1.48441Z" fill="#70AD50"/>
</mask>
<g mask="url(#mask0_14_30)">
<rect width="300" height="300" fill="url(#paint0_radial_14_30)"/>
</g>
<defs>
<radialGradient id="paint0_radial_14_30" cx="0" cy="0" r="1" gradientUnits="userSpaceOnUse" gradientTransform="translate(89 82) rotate(48.7769) scale(289.836)">
<stop offset="0.3125" stop-color="#70AD50"/>
<stop offset="0.594217" stop-color="#2C84A4"/>
<stop offset="0.823935" stop-color="#1F23D8"/>
</radialGradient>
</defs>
</svg>
