<svg width="300" height="300" viewBox="0 0 300 300" fill="none" xmlns="http://www.w3.org/2000/svg">
<path d="M150.492 299C273.367 299 286.483 282.806 287.846 253.999C288.185 246.828 282.176 241 274.996 241H150.492L26.0041 241C18.8244 241 12.7569 246.837 13.2212 254.002C14.9206 280.224 29.416 299 150.492 299Z" fill="white" stroke="white"/>
<path d="M16 186C16 171.641 27.6406 160 42 160H259C273.359 160 285 171.641 285 186V196C285 215.33 269.33 231 250 231H51C31.67 231 16 215.33 16 196V186Z" fill="white"/>
<path d="M150.5 1.5C210.82 1.50002 245.844 19.2747 265.782 41.0098C285.709 62.7325 290.5 88.3377 290.5 103.886C290.5 119.381 287.826 130.828 280.538 138.386C273.247 145.946 261.451 149.5 243.503 149.5H57.501C40.4742 149.5 28.6857 145.943 21.166 138.392C13.6463 130.84 10.5 119.398 10.5 103.886C10.5001 90.6109 15.2951 65.0123 35.2139 42.7256C55.1478 20.4219 90.1701 1.5 150.5 1.5ZM180.403 106.422C178.151 105.371 175.473 106.345 174.422 108.597C170.143 117.765 160.909 121.822 151.077 121.38C141.094 120.931 131.823 115.883 128.003 108.444C126.868 106.234 124.155 105.362 121.944 106.497C119.734 107.632 118.862 110.345 119.997 112.556C125.677 123.617 138.406 129.819 150.673 130.37C163.091 130.928 176.357 125.734 182.578 112.403C183.629 110.151 182.655 107.473 180.403 106.422ZM179.5 78C176.462 78 174 80.4624 174 83.5C174 86.5376 176.462 89 179.5 89C182.538 89 185 86.5376 185 83.5C185 80.4624 182.538 78 179.5 78ZM121.5 68C118.462 68 116 70.4624 116 73.5C116 76.5376 118.462 79 121.5 79C124.538 79 127 76.5376 127 73.5C127 70.4624 124.538 68 121.5 68Z" fill="white"/>
</svg>
